
<svg width="64" height="64" viewBox="0 0 64 64" fill="none" xmlns="http://www.w3.org/2000/svg">
  <rect width="64" height="64" rx="12" fill="#E0F7FA"/>
  <path d="M32 12C22.6 12 15 19.6 15 29C15 38.4 22.6 46 32 46C41.4 46 49 38.4 49 29C49 19.6 41.4 12 32 12ZM32 42C24.3 42 18 35.7 18 28C18 20.3 24.3 14 32 14C39.7 14 46 20.3 46 28C46 35.7 39.7 42 32 42Z" fill="#00796B"/>
  <path d="M32 24C30.3 24 29 25.3 29 27C29 28.7 30.3 30 32 30C33.7 30 35 28.7 35 27C35 25.3 33.7 24 32 24ZM32 32C29.8 32 28 30.2 28 28C28 25.8 29.8 24 32 24C34.2 24 36 25.8 36 28C36 30.2 34.2 32 32 32Z" fill="#004D40"/>
  <path d="M32 34C30.9 34 30 34.9 30 36V38C30 39.1 30.9 40 32 40C33.1 40 34 39.1 34 38V36C34 34.9 33.1 34 32 34Z" fill="#004D40"/>
</svg>
